<svg width="566" height="317" viewBox="0 0 566 317" xmlns="http://www.w3.org/2000/svg" xmlns:xlink="http://www.w3.org/1999/xlink">
    <defs>
        <path id="k26b0v3a3a" d="M0 0h2.88v2.878H0z"/>
        <path id="iam4058qcc" d="M0 0h2.16v2.878H0z"/>
        <path id="7zvm2z3mpe" d="M0 0h2.88v2.878H0z"/>
    </defs>
    <g fill="none" fill-rule="evenodd">
        <g transform="translate(0 23.02)">
            <mask id="hmop4f72xb" fill="#fff">
                <use xlink:href="#k26b0v3a3a"/>
            </mask>
            <path d="M2.88 1.439a1.44 1.44 0 1 1-2.878-.001 1.44 1.44 0 0 1 2.878 0" fill="#FFF" mask="url(#hmop4f72xb)"/>
        </g>
        <path d="M2.88 8.633c0 .794-.483 1.438-1.08 1.438-.596 0-1.08-.644-1.08-1.438 0-.795.484-1.44 1.08-1.44.597 0 1.08.645 1.08 1.44M174.985 11.87c0 .993-.645 1.798-1.44 1.798-.796 0-1.44-.805-1.44-1.798 0-.994.644-1.799 1.44-1.799.795 0 1.44.805 1.44 1.799M173.545 25.538c0 .993-.645 1.798-1.44 1.798-.796 0-1.44-.805-1.44-1.798 0-.994.644-1.799 1.44-1.799.795 0 1.44.805 1.44 1.799M126.738 48.198a1.44 1.44 0 1 1-2.879-.001 1.44 1.44 0 0 1 2.879.001M73.45 67.621a1.44 1.44 0 1 1-2.878 0 1.44 1.44 0 0 1 2.878 0M269.318 29.854a1.8 1.8 0 1 1-3.598-.001 1.8 1.8 0 0 1 3.598.001" fill="#FFF"/>
        <g transform="translate(367.972)">
            <mask id="tdrsm24wdd" fill="#fff">
                <use xlink:href="#iam4058qcc"/>
            </mask>
            <path d="M2.16 1.439c0 .794-.483 1.439-1.08 1.439-.596 0-1.08-.645-1.08-1.44C0 .645.484 0 1.08 0c.597 0 1.08.644 1.08 1.439" fill="#FFF" mask="url(#tdrsm24wdd)"/>
        </g>
        <path d="M357.17 40.645a1.08 1.08 0 1 1-2.159-.001 1.08 1.08 0 0 1 2.16 0M220.351 219.41a1.44 1.44 0 1 1-2.878-.001 1.44 1.44 0 0 1 2.878 0M132.499 255.738a1.08 1.08 0 1 1-2.16 0 1.08 1.08 0 0 1 2.16 0M419.82 246.746c0 .795-.484 1.439-1.08 1.439-.598 0-1.081-.644-1.081-1.439s.483-1.439 1.08-1.439c.597 0 1.08.644 1.08 1.439M556.639 90.641a1.44 1.44 0 1 1-2.879 0 1.44 1.44 0 0 1 2.879 0M547.997 62.226c0 .993-.644 1.798-1.44 1.798-.795 0-1.44-.805-1.44-1.798s.645-1.798 1.44-1.798c.796 0 1.44.805 1.44 1.798M506.232 241.35c0 .994-.645 1.8-1.44 1.8-.796 0-1.44-.806-1.44-1.8 0-.993.644-1.798 1.44-1.798.795 0 1.44.805 1.44 1.799M370.127 253.725a1.44 1.44 0 1 1-2.88 0 1.44 1.44 0 0 1 2.88 0M344.929 244.948c0 .993-.645 1.798-1.44 1.798-.796 0-1.44-.805-1.44-1.798 0-.994.644-1.799 1.44-1.799.795 0 1.44.805 1.44 1.799M526.394 279.478c0 .993-.805 1.798-1.8 1.798a1.8 1.8 0 1 1 1.8-1.798M547.277 266.888c0 1.193-.806 2.159-1.8 2.159s-1.8-.966-1.8-2.159c0-1.191.806-2.157 1.8-2.157s1.8.966 1.8 2.157M544.397 308.613c0 1.191-.806 2.158-1.8 2.158-.995 0-1.8-.967-1.8-2.158 0-1.192.805-2.159 1.8-2.159.994 0 1.8.967 1.8 2.159M491.83 314.367a1.44 1.44 0 1 1-2.879 0 1.44 1.44 0 0 1 2.879 0M566 286.312c0 1.192-.806 2.158-1.8 2.158-.995 0-1.8-.966-1.8-2.158s.805-2.158 1.8-2.158c.994 0 1.8.966 1.8 2.158M535.036 238.113a2.16 2.16 0 0 1-4.32 0c-.001-1.192.966-2.158 2.16-2.158 1.193 0 2.16.966 2.16 2.158M515.593 119.776c0 .994-.645 1.799-1.44 1.799-.796 0-1.44-.805-1.44-1.799 0-.993.644-1.798 1.44-1.798.795 0 1.44.805 1.44 1.798M508.392 45.32a1.44 1.44 0 1 1-2.882-.001 1.44 1.44 0 0 1 2.882.002M498.31 73.017c0 .993-.644 1.798-1.44 1.798-.795 0-1.44-.805-1.44-1.798 0-.994.645-1.799 1.44-1.799.796 0 1.44.805 1.44 1.799M391.735 110.064a1.44 1.44 0 1 1-2.878 0 1.44 1.44 0 0 1 2.878 0M398.936 97.116a1.44 1.44 0 1 1-2.878-.001 1.44 1.44 0 0 1 2.878 0M420.54 42.803a1.8 1.8 0 1 1-3.602-.002 1.8 1.8 0 0 1 3.601.002M314.684 15.467c0 .993-.805 1.798-1.8 1.798a1.8 1.8 0 1 1 1.8-1.798M484.628 289.908c0 .795-.483 1.44-1.08 1.44-.596 0-1.08-.645-1.08-1.44 0-.794.484-1.438 1.08-1.438.597 0 1.08.644 1.08 1.438M451.62 283.146a1.8 1.8 0 1 1-3.602-.002 1.8 1.8 0 0 1 3.603.002M167.784 267.608c0 .795-.484 1.439-1.08 1.439-.597 0-1.08-.644-1.08-1.44 0-.794.483-1.438 1.08-1.438.596 0 1.08.644 1.08 1.439M264.997 235.596a1.08 1.08 0 1 1-2.159-.001 1.08 1.08 0 0 1 2.16 0M141.14 303.577a1.44 1.44 0 1 1-2.879-.001 1.44 1.44 0 0 1 2.879 0M113.056 315.087c0 .795-.484 1.439-1.08 1.439-.597 0-1.08-.644-1.08-1.44 0-.794.483-1.438 1.08-1.438.596 0 1.08.644 1.08 1.439M87.852 272.284a1.08 1.08 0 1 1-2.159 0 1.08 1.08 0 0 1 2.16 0M61.209 291.347a1.44 1.44 0 1 1-2.879 0 1.44 1.44 0 0 1 2.879 0M34.565 298.182a1.8 1.8 0 1 1-3.599-.002 1.8 1.8 0 0 1 3.599.002M26.644 255.019c0 .993-.645 1.798-1.44 1.798-.796 0-1.44-.805-1.44-1.798s.644-1.799 1.44-1.799c.795 0 1.44.806 1.44 1.799M61.929 138.12a1.44 1.44 0 1 1-2.88-.001 1.44 1.44 0 0 1 2.88.001M94.333 60.068a1.08 1.08 0 1 1-2.159 0 1.08 1.08 0 0 1 2.16 0M45.366 11.87a1.08 1.08 0 1 1-2.158-.001 1.08 1.08 0 0 1 2.158 0M236.913 209.338a1.44 1.44 0 1 1-2.878 0 1.44 1.44 0 0 1 2.878 0M337.728 47.12a1.08 1.08 0 1 1-2.16-.002 1.08 1.08 0 0 1 2.16.001M228.272 27.696c0 .993-.644 1.798-1.44 1.798-.795 0-1.44-.805-1.44-1.798s.645-1.798 1.44-1.798c.796 0 1.44.805 1.44 1.798M436.46 313.202c0 .993-.805 1.798-1.8 1.798a1.8 1.8 0 1 1 1.8-1.798M199.468 249.624a1.44 1.44 0 1 1-2.879-.002 1.44 1.44 0 0 1 2.88.002M138.98 277.68c0 .794-.484 1.438-1.08 1.438-.597 0-1.08-.644-1.08-1.439s.483-1.438 1.08-1.438c.596 0 1.08.643 1.08 1.438M407.496 297.174a1.44 1.44 0 1 1-2.879-.002 1.44 1.44 0 0 1 2.88.002M388.135 239.912a1.08 1.08 0 1 1-2.16-.001 1.08 1.08 0 0 1 2.16.001M433.501 264.011a.72.72 0 1 1-1.44 0 .72.72 0 0 1 1.44 0M473.827 246.027c0 .795-.484 1.438-1.08 1.438-.597 0-1.08-.643-1.08-1.438 0-.795.483-1.439 1.08-1.439.596 0 1.08.644 1.08 1.439M498.31 100.353c0 .993-.644 1.798-1.44 1.798-.795 0-1.44-.805-1.44-1.798s.645-1.798 1.44-1.798c.796 0 1.44.805 1.44 1.798M527.835 46.76a1.44 1.44 0 1 1-2.88-.002 1.44 1.44 0 0 1 2.88.001M526.394 20.143a1.44 1.44 0 1 1-2.878-.001 1.44 1.44 0 0 1 2.878 0M450.064 27.696a1.8 1.8 0 1 1-3.599-.002 1.8 1.8 0 0 1 3.599.002M382.374 48.198a1.44 1.44 0 1 1-2.88-.001 1.44 1.44 0 0 1 2.88.001M210.99 91.36c0 .796-.484 1.44-1.08 1.44-.597 0-1.08-.644-1.08-1.44 0-.794.483-1.438 1.08-1.438.596 0 1.08.644 1.08 1.439M203.789 83.807a1.08 1.08 0 1 1-2.16 0 1.08 1.08 0 0 1 2.16 0M182.186 60.428a1.44 1.44 0 1 1-2.879-.002 1.44 1.44 0 0 1 2.879.002M110.176 25.897c0 .795-.484 1.44-1.08 1.44-.597 0-1.08-.645-1.08-1.44 0-.794.483-1.438 1.08-1.438.596 0 1.08.644 1.08 1.438M51.127 75.894a1.08 1.08 0 1 1-2.16 0 1.08 1.08 0 0 1 2.16 0M25.924 52.155a1.08 1.08 0 1 1-2.16 0 1.08 1.08 0 0 1 2.16 0M42.486 107.547a1.08 1.08 0 1 1-2.16-.001 1.08 1.08 0 0 1 2.16 0M42.486 238.833a1.44 1.44 0 1 1-2.88-.001 1.44 1.44 0 0 1 2.88 0M100.814 288.47c0 .795-.483 1.439-1.08 1.439-.597 0-1.08-.644-1.08-1.439s.483-1.439 1.08-1.439c.597 0 1.08.644 1.08 1.439M83.664 304.348a1.44 1.44 0 1 1-2.882-.001 1.44 1.44 0 0 1 2.882 0" fill="#FFF"/>
        <g transform="translate(234.033 246.027)">
            <mask id="fkca66j0if" fill="#fff">
                <use xlink:href="#7zvm2z3mpe"/>
            </mask>
            <path d="M2.88 1.439a1.44 1.44 0 1 1-2.878-.001 1.44 1.44 0 0 1 2.878 0" fill="#FFF" mask="url(#fkca66j0if)"/>
        </g>
        <path d="M311.804 239.193a1.8 1.8 0 1 1-3.603-.002 1.8 1.8 0 0 1 3.603.002M411.898 272.284c0 .993-.806 1.798-1.8 1.798a1.8 1.8 0 1 1 1.8-1.798" fill="#FFF"/>
        <g fill="#FAD701" stroke="#FAD701">
            <path d="M146.495 66.181a.67.67 0 0 1 .421.01l19.59 6.97c.047.016.09.037.132.063.012.008.022.018.034.027l.038.03a.67.67 0 0 1 .112.118l.015.018c.034.05.059.106.079.164l.012.046c.005.02.013.04.017.062l12.112 77.802 19.282 6.86.067.028.064.036c.013.007.023.018.034.026l.039.03c.042.036.08.075.111.118l.015.018c.034.05.06.106.079.164l.012.047c.006.02.014.04.017.062l4.544 29.186a.67.67 0 0 1-.467.744l-17.173 5.23 5.851 37.576a.663.663 0 0 1-.467.739l-31.681 9.636h-.196c-.07 0-.14.011-.207-.011l-.018.022-19.59-6.972a.682.682 0 0 1-.438-.537l-3.899-25.055L91.1 222.79c-.04 0-.078.025-.117.029-.014.002-.029.01-.043.011-.01 0-.018-.04-.027-.04-.018 0-.026.04-.034.039-.067-.003-.132.03-.195.009l-19.595-6.97a.67.67 0 0 1-.439-.53l-3.645-23.412v-.028a.813.813 0 0 1-.003-.117c0-.015 0-.03.002-.044a.666.666 0 0 1 .036-.15l42.84-113.981a.661.661 0 0 1 .108-.184.675.675 0 0 1 .132-.127l.012-.007a.671.671 0 0 1 .161-.079l.02-.01zm19.241 8.48L130.61 85.357l-8.033 21.372-34.629 92.134 3.5 22.474 43.694-13.307a.657.657 0 0 1 .237-.133l17.677-5.322a.682.682 0 0 1 .175-.026l.023-.003.038.004c.04.002.092.007.132.016.017.004.057.005.073.01.054.017.203.036.203.066v.017h-.094c.024 0 .044.03.066.048l.047.031c.008.009.014.019.022.027.088.097.15.217.17.35l5.821 37.39 30.384-9.253-5.851-37.58a.67.67 0 0 1 .467-.745l17.173-5.23-4.336-27.847-16.988 5.174a.67.67 0 0 1-.175.027c-.007 0-.014.005-.021.005l-.033-.002c-.04-.002-.08-.001-.119-.01-.017-.004-.034.005-.05 0-.055-.018-.107-.014-.155-.045v.036l-.001.013-.017-.02c-.01-.023-.02-.058-.03-.066-.023-.017-.047-.082-.067-.102-.018-.018-.033-.038-.048-.058-.015-.017-.034-.034-.046-.052a.732.732 0 0 1-.039-.068c-.01-.02-.031-.038-.04-.06-.01-.028-.034-.058-.04-.089-.005-.016-.048-.032-.048-.049l.03-.03-13.946-89.795zm-13.033 129.424-16.369 4.986 3.866 24.835 18.151 6.457-5.648-36.278zm-84.198-11.251 3.41 21.904 18.15 6.458-3.41-21.905-6.158-2.191-11.992-4.266zm42.4-114.138L68.536 191.42l8.822 3.14 9.502 3.38 42.085-111.97.283-.755-18.325-6.519zm30.562 47.483.105.002c.319.03.572.282.604.601.175 1.763.39 3.466.64 5.063l6.551 42.083a.67.67 0 0 1-.468.745 249.076 249.076 0 0 0-12.127 4.028c-1.3.488-4.896 2.08-8.713 3.8l-.697.314-1.395.631c-4.874 2.208-9.494 4.338-9.583 4.38a.67.67 0 0 1-.9-.873c8.552-20.099 24.861-58.566 25.38-60.297a.675.675 0 0 1 .708-.475zm-.324 3.426c-1.81 4.438-5.793 13.91-10.03 23.935l-.592 1.402-.297.703-.893 2.111a17598.236 17598.236 0 0 1-11.93 28.124c4.346-1.997 16.212-7.427 18.907-8.438a249.32 249.32 0 0 1 11.643-3.882l-6.463-41.509a88.334 88.334 0 0 1-.345-2.446zm38.211 23.416 1.58 10.493 15.038-4.58-16.618-5.913zm-32.68-85.491L112.65 77.892l17.465 6.213 34.026-10.362-17.465-6.213zM276.585 60c13.137 0 24.735 2.826 34.472 8.4 10.282 6.044 18.645 14.504 24.864 25.146 6.043 10.343 10.308 22.547 12.675 36.276 1.924 11.16 2.368 21.355 1.32 30.301a66.019 66.019 0 0 1-1.28 7.344c-.004.03-.006.061-.013.092l-2.993 12.758c-1.405 5.989-3.663 11.513-6.712 16.42-.258.422-.524.84-.795 1.254-.081.123-.166.242-.247.363-.198.295-.396.589-.6.878l-.19.261a44.41 44.41 0 0 1-.716.975l-.064.082c-.229.3-.458.598-.693.89a42.583 42.583 0 0 1-8.638 8.09c-6.685 4.712-15.116 7.808-25.06 9.202a87.504 87.504 0 0 1-5.389.58c-.071.005-.142.013-.214.018-.645.05-1.296.093-1.95.129a91 91 0 0 1-2.492.037l-.853-.006c-.566-.008-1.129-.022-1.69-.039l-.58-.02a81.895 81.895 0 0 1-2.37-.12l-.692-.052a79.99 79.99 0 0 1-1.612-.137c-.341-.032-.682-.063-1.02-.1a72.647 72.647 0 0 1-1.753-.213c-.199-.026-.402-.045-.6-.072-.304-.043-.602-.099-.905-.145l-.377-.06a67.61 67.61 0 0 1-7.87-1.73l-.053-.015a63.657 63.657 0 0 1-4.502-1.464l-.374-.14a62.298 62.298 0 0 1-2.27-.903c-.22-.092-.44-.184-.66-.28a60.35 60.35 0 0 1-1.145-.509 61.112 61.112 0 0 1-3.558-1.777c-.257-.14-.516-.277-.77-.42a59.677 59.677 0 0 1-2.336-1.38 62.175 62.175 0 0 1-1.593-1.019l-.353-.235a60.69 60.69 0 0 1-1.702-1.193c-.155-.113-.31-.225-.465-.34a62.185 62.185 0 0 1-1.754-1.342c-.104-.083-.207-.17-.312-.254a63.307 63.307 0 0 1-1.58-1.317l-.296-.253a64.43 64.43 0 0 1-1.692-1.532l-.36-.342a66.31 66.31 0 0 1-1.687-1.656c-6.398-6.378-11.671-13.903-15.666-22.362-3.982-8.427-6.994-18.12-8.953-28.81-1.173-6.807-1.746-13.264-1.718-19.331.03-6.068.66-11.745 1.89-16.99l2.993-12.758a.672.672 0 0 1 .062-.159c1.471-6.22 3.774-11.889 6.911-16.982 8.926-14.128 23.843-21.865 44.338-23.002a95.38 95.38 0 0 1 2.642-.037zm-55.761 53.781c-1.15 5.097-1.727 10.609-1.732 16.496-.005 5.15.427 10.59 1.298 16.288.124.814.257 1.634.4 2.458 1.936 10.569 4.912 20.15 8.844 28.473 3.93 8.318 9.112 15.717 15.406 21.99a64.804 64.804 0 0 0 2.044 1.992 63.342 63.342 0 0 0 1.66 1.503l.22.187c.495.427.997.844 1.503 1.253.168.135.334.271.503.404.544.431 1.094.853 1.65 1.263.18.133.362.26.543.39.4.289.805.572 1.213.85.247.17.494.339.743.504.504.333 1.012.659 1.524.975.33.204.664.401.998.598a59.234 59.234 0 0 0 4.711 2.508l.013.006c8.317 3.947 17.681 6.023 28.023 6.212l.253.006c.488.007.98.008 1.472.007l.37.001a92.46 92.46 0 0 0 1.823-.03c.994-.054 1.978-.129 2.954-.214 17.73-1.544 30.773-8.029 38.825-19.314l.08-.109c.22-.311.434-.63.647-.948.062-.092.126-.182.187-.275.264-.401.523-.809.775-1.222 2.975-4.786 5.177-10.176 6.548-16.023l.167-.711c-.073.152-.151.301-.226.453l-.22.438c-.147.288-.297.574-.449.859-.078.146-.155.293-.234.439-.163.299-.33.595-.5.89-.07.122-.138.247-.21.369-.24.414-.487.825-.739 1.231-.259.424-.525.844-.798 1.259l-.211.311c-.21.313-.42.625-.637.932-.053.075-.108.148-.162.222-.244.341-.49.679-.743 1.01l-.05.066c-.232.303-.465.605-.703.9a42.584 42.584 0 0 1-8.638 8.09c-6.686 4.712-15.118 7.804-25.06 9.198a87.785 87.785 0 0 1-7.554.702c-.845.023-1.676.004-2.49.004-.858 0-1.705.013-2.547-.012-.191-.006-.382.02-.572.012-.8-.029-1.594-.067-2.382-.12-.222-.014-.442-.033-.663-.05a77.412 77.412 0 0 1-1.656-.14c-.33-.031-.658-.061-.985-.096a77.521 77.521 0 0 1-1.785-.217l-.581-.07c-.295-.042-.584-.096-.878-.141l-.454-.072a67.54 67.54 0 0 1-7.79-1.713l-.113-.032a63.727 63.727 0 0 1-4.455-1.45l-.43-.162a61.242 61.242 0 0 1-2.196-.872c-.237-.1-.475-.198-.71-.3a59.788 59.788 0 0 1-4.705-2.29c-.25-.135-.5-.268-.748-.406a60.31 60.31 0 0 1-1.708-.995c-.21-.126-.417-.255-.625-.384a58.622 58.622 0 0 1-1.619-1.036c-.107-.071-.214-.141-.32-.213a61.346 61.346 0 0 1-1.724-1.209l-.455-.331a61.645 61.645 0 0 1-1.76-1.348c-.102-.081-.203-.165-.304-.247a62.248 62.248 0 0 1-1.589-1.325c-.097-.083-.195-.165-.291-.25a64.055 64.055 0 0 1-1.694-1.533l-.36-.34a66.249 66.249 0 0 1-1.687-1.657c-.4-.398-.795-.802-1.186-1.21-5.866-6.112-10.734-13.222-14.48-21.152-3.235-6.848-5.83-14.53-7.74-22.905a139.858 139.858 0 0 1-1.213-5.906c-.154-.898-.295-1.787-.429-2.672l-.1-.68a123.46 123.46 0 0 1-.34-2.491l-.02-.158c-.104-.842-.194-1.676-.278-2.507a109.887 109.887 0 0 1-.243-2.767c-.024-.31-.042-.618-.063-.926-.042-.617-.07-1.23-.1-1.84-.02-.39-.02-.78-.036-1.168-.013-.365.007-.727-.003-1.089-.024-.91.026-1.813.026-2.707v-.28c0-.256-.066-.516-.063-.77.011-.897-.025-1.785.013-2.664zm55.76-52.439c-.85 0-1.72.012-2.585.036-20.018 1.11-34.577 8.638-43.254 22.372-6.186 10.043-9.062 22.414-8.603 36.906a97.574 97.574 0 0 0 .12 2.623c.022.396.045.791.073 1.19.03.417.064.837.098 1.258a112.602 112.602 0 0 0 .274 2.908l.09.785a121.725 121.725 0 0 0 .288 2.29c.07.517.144 1.037.221 1.559l.106.715c.117.757.239 1.516.37 2.281 1.937 10.569 4.914 20.15 8.846 28.473a81.507 81.507 0 0 0 3.18 6.063c3.41 5.884 7.506 11.222 12.226 15.928.539.55 1.088 1.084 1.642 1.611l.4.378a62.74 62.74 0 0 0 1.663 1.507l.211.179c.5.432 1.006.851 1.517 1.265.163.131.326.263.49.393.548.435 1.102.86 1.663 1.274.17.124.342.245.513.367.415.3.834.594 1.257.882.235.16.47.322.707.479.514.34 1.033.673 1.557.997.309.19.62.374.932.558a59.007 59.007 0 0 0 4.687 2.501l.168.08a62.029 62.029 0 0 0 12.427 4.31 67.4 67.4 0 0 0 1.661.366c2.787.577 5.663.99 8.625 1.237a79.305 79.305 0 0 0 5.164.259l.33.007c.475.008.952.008 1.43.008h.401a87.29 87.29 0 0 0 1.82-.03 93.109 93.109 0 0 0 3.245-.239c.18-.016.364-.029.543-.046.01-.001.02-.003.031-.003 17.306-1.68 30.059-8.147 37.979-19.265l.057-.08c.23-.325.456-.657.678-.991l.158-.232a43.7 43.7 0 0 0 .777-1.226c.33-.533.649-1.075.96-1.622a49.637 49.637 0 0 0 .988-1.823c.059-.113.12-.225.178-.34.275-.543.54-1.095.798-1.652.086-.186.168-.373.252-.56.176-.392.347-.788.514-1.187.092-.22.186-.44.275-.663.212-.526.417-1.056.614-1.592.1-.274.194-.551.29-.827a57.505 57.505 0 0 0 .625-1.893c.086-.28.167-.561.25-.843.16-.547.311-1.1.457-1.656.078-.301.157-.602.23-.906a64.28 64.28 0 0 0 1.383-7.744c1.034-8.818.593-18.884-1.31-29.917-2.339-13.57-6.548-25.624-12.51-35.827-6.101-10.442-14.303-18.74-24.379-24.662-9.524-5.452-20.897-8.219-33.797-8.219zm1.429 24.89.224.007c.296.002.59.01.882.023.105.005.211.007.317.014.398.022.791.055 1.18.097l.179.021c.191.022.383.042.572.069.181.025.36.057.54.086l.115.019c.413.07.823.15 1.23.243l.036.01c.374.085.745.183 1.114.288l.202.057c.38.113.757.232 1.13.365l.083.03a22.198 22.198 0 0 1 1.27.502c.355.153.707.311 1.054.482 3.228 1.599 6.216 4.388 8.882 8.292 5.756 7.961 10.015 19.75 12.648 35.023.16.932.31 1.848.45 2.754.046.292.086.577.13.865.091.616.181 1.23.264 1.833a184.762 184.762 0 0 1 .339 2.664 119.208 119.208 0 0 1 .289 2.706c.022.228.046.459.066.685.153 1.696.264 3.335.331 4.917l.002.052c.033.774.054 1.53.066 2.277l.003.269a79.274 79.274 0 0 1-.003 2.258c-.06 3.73-.399 7.078-1.017 10.03l-.037.175c-.05.234-.096.475-.15.704a.67.67 0 0 1-.038.114l-.011.026c-.343 1.441-.747 2.797-1.229 4.041-1.39 4.177-3.425 7.253-6.038 9.11-2.608 1.853-5.707 2.914-9.21 3.154-.304.013-.587.019-.87.019-3.102 0-6.116-.722-8.96-2.146-3.092-1.542-6.174-4.24-9.16-8.02-2.99-3.858-5.622-8.751-7.829-14.547-2.207-5.782-4.035-12.821-5.431-20.923-1.45-8.403-2.068-15.715-1.838-21.732.027-.719.065-1.422.112-2.112 0-.019.002-.038.004-.056.202-2.908.583-5.567 1.14-7.959.003-.012.003-.025.006-.038.037-.156.078-.305.116-.458a36.103 36.103 0 0 1 .29-1.097c.081-.292.166-.58.254-.862l.079-.254a29.925 29.925 0 0 1 .828-2.267c.113-.284.23-.56.348-.834.038-.088.077-.173.116-.26a28.2 28.2 0 0 1 .246-.542l.145-.304a27.332 27.332 0 0 1 .612-1.19c.062-.113.124-.228.187-.339.058-.103.118-.202.178-.303.305-.52.621-1.013.948-1.476l.054-.078c.116-.163.233-.32.351-.475l.069-.09c.064-.083.126-.17.19-.25.042-.05.085-.096.126-.147.162-.197.326-.39.493-.575.066-.073.133-.142.2-.214.15-.16.303-.316.457-.466l.163-.16a13.3 13.3 0 0 1 .622-.553l.144-.118c.224-.182.45-.357.68-.519l.01-.007c.285-.2.575-.388.869-.568.122-.075.247-.144.37-.216a15.473 15.473 0 0 1 .958-.511c.19-.093.38-.181.573-.266.127-.056.253-.112.381-.165.239-.097.48-.187.723-.272.084-.03.167-.063.252-.092.34-.113.683-.215 1.032-.305l.121-.028c.306-.077.615-.145.927-.203.1-.019.201-.034.302-.051.148-.025.295-.055.444-.076.119-.017.24-.027.36-.042.091-.01.181-.021.272-.03.353-.037.71-.066 1.068-.081l.403-.003zm-2.758 14.101-.6.003c-.513.021-1.041.069-1.551.14a14.408 14.408 0 0 0-6.353 2.512c-.951.67-1.83 1.51-2.632 2.51-1.195 1.49-2.368 3.202-2.875 5.608a67.521 67.521 0 0 0-.112 2.09c-.226 5.924.386 13.142 1.82 21.454 1.381 8.016 3.185 14.971 5.362 20.672 2.16 5.673 4.728 10.45 7.632 14.199 2.859 3.618 5.788 6.192 8.703 7.646 2.898 1.451 5.98 2.118 9.154 1.987 3.236-.221 6.103-1.2 8.506-2.907a11.65 11.65 0 0 0 2.25-2.132c.117-.722.238-1.445.36-2.174 1.24-7.376 2.52-15.003.435-27.095-2.598-15.07-6.778-26.67-12.423-34.48-2.546-3.726-5.36-6.365-8.378-7.86a20.985 20.985 0 0 0-6.366-1.956 22.774 22.774 0 0 0-3.532-.214zm2.662-12.756h-.269c-.323.014-.641.04-.958.073a15.321 15.321 0 0 0-.976.133c-.104.017-.208.034-.31.053-.278.053-.554.113-.826.18-.041.011-.083.019-.124.03a14.49 14.49 0 0 0-.951.281c-.06.02-.12.044-.18.065-.245.086-.487.176-.726.275a14.145 14.145 0 0 0-1.797.892c-.082.048-.166.093-.247.143-.281.172-.559.352-.83.544l-.053.038c-.184.132-.367.273-.548.42l-.164.134a12.28 12.28 0 0 0-.545.486l-.154.152c-.136.133-.27.271-.403.413-.065.07-.13.137-.194.208a14.536 14.536 0 0 0-.747.901l-.089.116c-.1.134-.2.27-.3.409l-.098.141c-.095.138-.19.276-.284.419l-.102.16c-.143.221-.282.45-.42.684-.069.116-.137.23-.204.349-.055.096-.107.196-.161.294a24.74 24.74 0 0 0-.587 1.145l-.134.282c-.08.17-.157.342-.235.517l-.109.245c-.112.259-.222.521-.33.79a25.914 25.914 0 0 0-.478 1.245 29.176 29.176 0 0 0-.77 2.492 41.482 41.482 0 0 0-.863 4.19c.427-.665.88-1.268 1.32-1.817.881-1.1 1.852-2.025 2.884-2.752l.037-.026a15.718 15.718 0 0 1 6.925-2.734 17.41 17.41 0 0 1 1.7-.153 24.719 24.719 0 0 1 3.757.227 22.31 22.31 0 0 1 6.774 2.082c3.228 1.599 6.215 4.388 8.882 8.292 5.755 7.961 10.014 19.75 12.648 35.023 1.827 10.596 1.076 18.064.068 24.489l2.329-5.342c.06-.26.126-.513.183-.779l.029-.14c.483-2.328.79-4.903.92-7.723l.003-.085a68.52 68.52 0 0 0 .058-1.977l.004-.329c.007-.609.005-1.229-.003-1.858l-.005-.395a87.417 87.417 0 0 0-.061-2.044c-.004-.078-.005-.153-.008-.231a98.24 98.24 0 0 0-.136-2.409l-.006-.076a110.34 110.34 0 0 0-.185-2.287c-.023-.247-.049-.5-.073-.75a132.87 132.87 0 0 0-.177-1.707c-.034-.304-.07-.61-.106-.916a145.34 145.34 0 0 0-.207-1.655 140.248 140.248 0 0 0-.389-2.76c-.041-.28-.08-.558-.125-.841a169.66 169.66 0 0 0-.444-2.714c-2.598-15.071-6.777-26.672-12.423-34.48-.318-.467-.64-.915-.967-1.347-1.632-2.158-3.367-3.89-5.187-5.18a16.576 16.576 0 0 0-3.465-1.892c-.318-.131-.639-.257-.963-.373l-.054-.02c-.355-.126-.715-.24-1.077-.347l-.167-.048a21.211 21.211 0 0 0-2.264-.514l-.08-.013c-.36-.06-.723-.11-1.088-.151l-.133-.016c-.38-.041-.763-.073-1.149-.095l-.198-.008a23.04 23.04 0 0 0-.947-.026c-.179-.001-.357-.004-.537-.001zM468.198 69.337c.064 0 .127.033.187.055.015.005.03.025.044.032a.66.66 0 0 1 .162.096l.012.012c.047.042.086.09.12.142.004.007.011.012.016.02l6.514 10.997a.67.67 0 0 1 .093.322l2.261 73.688 13.353-2.028a.697.697 0 0 1 .117-.005c.008 0 .016-.002.024-.001a.68.68 0 0 1 .23.059.667.667 0 0 1 .16.095l.012.012c.047.041.086.09.12.142.004.007.011.012.016.02l6.514 10.997a.67.67 0 0 1 .093.323l.802 27.72a.67.67 0 0 1-.557.79l-.01.002-19.814 3.01 1.033 35.69a.646.646 0 0 1-.143.544c-.006.01-.014.017-.02.025a.813.813 0 0 1-.126.111c-.012.008-.024.014-.036.02a.647.647 0 0 1-.166.072l-.053.014c-.008.002-.015.006-.023.007l-36.454 5.537a.672.672 0 0 1-.679-.322l-6.514-10.999-.01-.022a.655.655 0 0 1-.04-.09c-.006-.019-.014-.035-.019-.053a.693.693 0 0 1-.017-.105c-.002-.016-.006-.031-.006-.047l-.678-23.426-64.834 9.566a.671.671 0 0 1-.674-.322l-6.51-10.998-.003-.022c-.016-.03-.015-.06-.026-.09l.01-.053c-.01-.034.041-.07.037-.105-.001-.016.106-.031.106-.047l-.758-22.33c-.004-.133-.08-.264-.01-.377L425.95 76a.676.676 0 0 1 .468-.31l41.642-6.333c.043-.007.085-.02.128-.02zm3.972 152.053-35.021 5.32 5.776 9.752 35.022-5.32-5.213-8.8-.564-.952zm.041-34.548.514 17.794.459 15.83 5.102 8.612-.974-33.623-5.1-8.613zm-4.7-116.03-40.586 6.165-63.625 101.58.618 21.363 70.992-10.783a.715.715 0 0 1 .101-.008l.015.003a.668.668 0 0 1 .197.035c.012.003.025.01.037.014a.662.662 0 0 1 .18.103l.01.01c.033.028.064.06.09.093.014.017.022.036.034.053.014.022.03.043.04.066.012.024.019.049.027.073.007.02.016.039.021.06.005.02.005.04.008.061.004.026.009.051.01.078l.41 12.209a.658.658 0 0 1-.06.271l.664 23.16 35.096-5.334-1.074-35.788v-.013c0-.006.041-.01.041-.017 0-.059.047-.118.063-.176.003-.013.005-.026.01-.039l.014-.032c.005-.014.007-.03.014-.043.012-.026.03-.049.046-.073.01-.016.018-.032.03-.047l.014-.02.008-.008a.678.678 0 0 1 .116-.107l.027-.016.01-.006a.623.623 0 0 1 .144-.068l.025-.012c.01-.002.02 0 .029-.003l.056-.016 19.814-3.01-.766-26.477-19.651 2.985c-.01.002-.02 0-.03.002-.024.002-.047.006-.071.006l-.014-.002a.678.678 0 0 1-.194-.034c-.013-.004-.025-.01-.038-.015a.675.675 0 0 1-.166-.093l-.012-.006c-.023-.02-.036-.037-.05-.052-.018-.018-.038-.035-.053-.054-.018-.022-.03-.047-.045-.07-.01-.017-.022-.032-.03-.05a.635.635 0 0 1-.04-.108l-.01-.025a.673.673 0 0 1-.02-.143l-2.475-85.641zm-33.149 119.766-12.499 1.898-57.51 8.736 5.778 9.754 64.546-9.525-.315-10.863zm57.157-8.681-10.036 1.524-8.933 1.357 5.776 9.753 18.97-2.882-5.777-9.752zm.288-25.983.725 25.059 5.102 8.613-.725-25.059-5.102-8.613zm-59.328-39.242a.671.671 0 0 1 1.264.342 69.142 69.142 0 0 0-.027 4.798l.129 4.816.904 36.491a.695.695 0 0 1-.592.685c-2.635.4-9.365 1.51-16.346 2.686l-1.165.197-1.166.197c-5.825.986-11.528 1.969-14.886 2.577-.04.007-.206.03-.206.03l.009-.002-.012-.006c-.012-.003-.023-.033-.035-.054l-.018-.021a.653.653 0 0 1-.112-.052l-.024-.01c-.021-.014-.039-.031-.059-.047-.01-.01-.022-.017-.033-.027a.674.674 0 0 1-.101-.117.69.69 0 0 1-.088-.196.688.688 0 0 1-.026-.169v-.014a.69.69 0 0 1 .034-.198.663.663 0 0 1 .073-.16l25.939-40.24c.38-.686 1.259-2.214 2.276-3.984l.684-1.19.35-.61.175-.306.35-.611c1.163-2.03 2.256-3.952 2.709-4.805zm-.135 3.004c-.86 1.516-1.954 3.422-2.968 5.187a488.895 488.895 0 0 0-2.29 4.005l-.017.026-.005.011-25.104 38.944c3.574-.636 8.8-1.533 14.054-2.42l1.212-.205c6.661-1.123 13.164-2.196 16.187-2.666l-.9-35.896-.139-4.812a72.558 72.558 0 0 1-.03-2.174zm36.563-47.063 2.4 83.024 4.958-.885-2.256-73.526-5.102-8.613z"/>
        </g>
    </g>
</svg>
